<svg xmlns="http://www.w3.org/2000/svg" viewBox="0 0 96 96" width="96" height="96" role="img" aria-label="YiPop">
  <title>YiPop</title>
  <rect width="96" height="96" rx="22" fill="#683B9B"/>
  <g transform="translate(18 18) scale(2.5)">
    <path fill="#FFFFFF" d="M12 1.8c.62 0 1.12.5 1.12 1.12v3.3a1.12 1.12 0 1 1-2.24 0v-3.3c0-.62.5-1.12 1.12-1.12Zm0 14.86a3.34 3.34 0 1 0 0-6.68 3.34 3.34 0 0 0 0 6.68ZM4.76 3.18a1.12 1.12 0 0 1 1.58 0l2.33 2.33a1.12 1.12 0 0 1-1.58 1.58L4.76 4.76a1.12 1.12 0 0 1 0-1.58Zm12.15 12.15 2.33 2.33a1.12 1.12 0 1 1-1.58 1.58l-2.33-2.33a1.12 1.12 0 1 1 1.58-1.58ZM1.8 12c0-.62.5-1.12 1.12-1.12h3.3a1.12 1.12 0 1 1 0 2.24h-3.3c-.62 0-1.12-.5-1.12-1.12Zm14.86 0c0-.62.5-1.12 1.12-1.12h3.3a1.12 1.12 0 1 1 0 2.24h-3.3c-.62 0-1.12-.5-1.12-1.12ZM7.09 15.33a1.12 1.12 0 0 1 1.58 1.58l-2.33 2.33a1.12 1.12 0 1 1-1.58-1.58l2.33-2.33Zm10.57-12.15a1.12 1.12 0 1 1 1.58 1.58l-2.33 2.33a1.12 1.12 0 1 1-1.58-1.58l2.33-2.33ZM12 17.78c.62 0 1.12.5 1.12 1.12v3.18a1.12 1.12 0 1 1-2.24 0V18.9c0-.62.5-1.12 1.12-1.12Z"/>
  </g>
</svg>
